<?xml version="1.0" encoding="UTF-8" standalone="no"?>
<!-- Created with Inkscape (http://www.inkscape.org/) -->

<svg
   xmlns:dc="http://purl.org/dc/elements/1.1/"
   xmlns:cc="http://creativecommons.org/ns#"
   xmlns:rdf="http://www.w3.org/1999/02/22-rdf-syntax-ns#"
   xmlns:svg="http://www.w3.org/2000/svg"
   xmlns="http://www.w3.org/2000/svg"
   xmlns:sodipodi="http://sodipodi.sourceforge.net/DTD/sodipodi-0.dtd"
   xmlns:inkscape="http://www.inkscape.org/namespaces/inkscape"
   width="127.0767"
   height="35.632626"
   viewBox="0 0 127.0767 35.632626"
   id="svg43973"
   version="1.1"
   inkscape:version="0.91 r13725"
   sodipodi:docname="bilbobus.svg">
  <defs
     id="defs43975">
    <clipPath
       id="clipPath27554"
       clipPathUnits="userSpaceOnUse">
      <path
         inkscape:connector-curvature="0"
         id="path27556"
         d="m 17.717,1034.251 93.672,0 0,20.592 -93.672,0 0,-20.592 z" />
    </clipPath>
  </defs>
  <sodipodi:namedview
     id="base"
     pagecolor="#ffffff"
     bordercolor="#666666"
     borderopacity="1.0"
     inkscape:pageopacity="0.0"
     inkscape:pageshadow="2"
     inkscape:zoom="1"
     inkscape:cx="227.10978"
     inkscape:cy="57.816292"
     inkscape:document-units="px"
     inkscape:current-layer="layer1"
     showgrid="false"
     units="px"
     fit-margin-top="5"
     fit-margin-right="5"
     fit-margin-bottom="5"
     fit-margin-left="5"
     inkscape:window-width="1600"
     inkscape:window-height="837"
     inkscape:window-x="-8"
     inkscape:window-y="-8"
     inkscape:window-maximized="1" />
  <metadata
     id="metadata43978">
    <rdf:RDF>
      <cc:Work
         rdf:about="">
        <dc:format>image/svg+xml</dc:format>
        <dc:type
           rdf:resource="http://purl.org/dc/dcmitype/StillImage" />
        <dc:title></dc:title>
      </cc:Work>
    </rdf:RDF>
  </metadata>
  <g
     inkscape:label="Capa 1"
     inkscape:groupmode="layer"
     id="layer1"
     transform="translate(-147.89022,-554.54585)">
    <g
       transform="matrix(1.25,0,0,-1.25,130.74397,1878.0996)"
       id="g27550">
      <g
         clip-path="url(#clipPath27554)"
         id="g27552">
        <g
           transform="translate(24.1901,1037.6517)"
           id="g27558">
          <path
             inkscape:connector-curvature="0"
             id="path27560"
             style="fill:#ed1c24;fill-opacity:1;fill-rule:nonzero;stroke:none"
             d="m 0,0 c 1.332,0.103 2.288,1.134 2.288,3.011 0,1.971 -1.06,3.01 -2.479,3.01 l -2.342,0 L -2.533,0 0,0 Z m -0.216,8.783 c 1.118,-0.026 2.031,0.944 2.033,2.609 0.004,1.941 -0.832,2.445 -2.025,2.546 l -2.325,-0.04 0,-5.141 2.317,0.026 z M 6.355,2.461 C 6.314,-0.438 3.903,-2.795 1.64,-2.795 l -8.114,0 0,19.632 7.593,-0.038 C 4.263,16.705 5.61,14.617 5.731,12.028 5.855,9.356 4.528,8.071 2.821,7.508 c 0,0 3.601,-0.28 3.534,-5.047" />
        </g>
        <path
           inkscape:connector-curvature="0"
           id="path27562"
           style="fill:#ed1c24;fill-opacity:1;fill-rule:nonzero;stroke:none"
           d="m 36.87,1051.622 -3.764,0 0,3.222 3.764,0 0,-3.222 z" />
        <path
           inkscape:connector-curvature="0"
           id="path27564"
           style="fill:#ed1c24;fill-opacity:1;fill-rule:nonzero;stroke:none"
           d="m 36.879,1034.841 -3.781,0 0,14.79 3.781,0 0,-14.79 z" />
        <path
           inkscape:connector-curvature="0"
           id="path27566"
           style="fill:#ed1c24;fill-opacity:1;fill-rule:nonzero;stroke:none"
           d="m 43.567,1034.841 -3.781,0 0,19.646 3.781,0 0,-19.646 z" />
        <g
           transform="translate(77.0418,1036.1831)"
           id="g27568">
          <path
             inkscape:connector-curvature="0"
             id="path27570"
             style="fill:#ed1c24;fill-opacity:1;fill-rule:nonzero;stroke:none"
             d="m 0,0 c 0.842,-1.158 2.304,-1.8 3.495,-1.8 1.083,0 2.236,0.602 3.042,1.578 1.185,1.433 1.246,3.7 1.246,6.283 0,2.897 -0.192,4.959 -1.357,6.375 C 5.798,13.197 4.234,13.768 3.345,13.768 2.32,13.768 1.213,13.429 0.43,12.546 0.301,12.401 0.113,12.184 0,12.019 l 0.014,6.285 -3.469,0 -0.348,0 -0.041,-19.646 0.18,0 3.456,0 0,0.19 0,1.374 L 0,0 Z M 3.414,10.451 C 4.063,9.599 3.997,7.807 3.997,5.996 3.997,4.381 4.074,2.728 3.539,1.832 3.175,1.222 2.55,1.083 2.061,1.083 1.523,1.083 0.88,1.233 0.5,1.957 0.025,2.858 -0.125,4.491 -0.125,5.996 c 0,1.673 0.223,3.399 0.791,4.287 0.354,0.551 0.932,0.626 1.395,0.626 0.402,0 1.03,-0.034 1.353,-0.458" />
        </g>
        <g
           transform="translate(52.103,1047.0917)"
           id="g27572">
          <path
             inkscape:connector-curvature="0"
             id="path27574"
             style="fill:#ed1c24;fill-opacity:1;fill-rule:nonzero;stroke:none"
             d="m 0,0 c -0.463,0 -1.042,-0.075 -1.395,-0.626 -0.569,-0.887 -0.791,-2.613 -0.791,-4.287 0,-1.505 0.15,-3.138 0.624,-4.039 0.381,-0.723 1.024,-0.874 1.562,-0.874 0.489,0 1.114,0.14 1.478,0.749 0.535,0.896 0.458,2.55 0.458,4.164 0,1.811 0.066,3.603 -0.583,4.455 C 1.03,-0.033 0.401,0 0,0 m -2.269,-10.687 0,-1.374 0,-0.19 -3.456,0 -0.18,0 0.042,19.646 0.347,0 3.469,0 -0.014,-6.284 c 0.113,0.164 0.301,0.381 0.43,0.527 0.783,0.882 1.89,1.221 2.915,1.221 0.889,0 2.453,-0.57 3.081,-1.332 1.166,-1.416 1.357,-3.477 1.357,-6.375 0,-2.583 -0.061,-4.85 -1.246,-6.282 -0.806,-0.976 -1.959,-1.579 -3.042,-1.579 -1.191,0 -2.652,0.642 -3.495,1.8 l -0.208,0.222 z" />
        </g>
        <g
           transform="translate(65.511,1047.3939)"
           id="g27576">
          <path
             inkscape:connector-curvature="0"
             id="path27578"
             style="fill:#ed1c24;fill-opacity:1;fill-rule:nonzero;stroke:none"
             d="m 0,0 c -0.481,0 -1.083,-0.08 -1.45,-0.669 -0.592,-0.947 -0.823,-2.79 -0.823,-4.576 0,-1.607 0.156,-3.351 0.65,-4.313 0.395,-0.773 1.064,-0.934 1.623,-0.934 0.509,0 1.159,0.149 1.537,0.8 0.557,0.957 0.477,2.723 0.477,4.447 0,1.933 0.069,3.846 -0.606,4.756 C 1.072,-0.036 0.418,0 0,0 m 3.54,1.777 c 1.775,-1.363 2.221,-4.064 2.221,-6.965 0,-2.586 -0.314,-5.091 -1.776,-6.525 -0.994,-0.976 -2.516,-1.344 -3.853,-1.344 -1.47,0 -3.226,0.241 -4.266,1.401 -1.296,1.443 -1.708,4.057 -1.708,6.468 0,2.68 0.492,5.332 2.046,6.753 0.965,0.883 2.664,1.115 3.928,1.115 1.097,0 2.525,-0.223 3.408,-0.903" />
        </g>
        <g
           transform="translate(87.1665,1038.5118)"
           id="g27580">
          <path
             inkscape:connector-curvature="0"
             id="path27582"
             style="fill:#ed1c24;fill-opacity:1;fill-rule:nonzero;stroke:none"
             d="m 0,0 0,11.141 0.005,0.172 3.731,0 0,-0.216 0,-10.022 C 3.576,-0.729 4.922,-0.97 5.241,-0.993 7.157,-1.132 7.323,0.562 7.323,0.562 l 0.12,1.416 0.003,0.18 0,9.116 3.721,0.039 0,-14.796 -3.619,0.101 0.039,1.709 C 7.031,-2.89 5.394,-3.925 3.795,-3.925 c -2.093,0 -3.79,1.473 -3.79,3.29 0,0.314 -0.012,0.803 0,0.835" />
        </g>
        <g
           transform="translate(110.8243,1047.0576)"
           id="g27584">
          <path
             inkscape:connector-curvature="0"
             id="path27586"
             style="fill:#ed1c24;fill-opacity:1;fill-rule:nonzero;stroke:none"
             d="m 0,0 c -0.555,1.607 -1.779,2.881 -4.069,2.978 -3.873,0.166 -6.255,-1.113 -6.344,-4.545 -0.072,-2.831 3.064,-4.281 4.688,-4.624 1.126,-0.238 2.656,-0.926 2.656,-2.022 0,-1.095 -0.796,-1.931 -1.947,-1.931 -1.15,0 -2.066,0.893 -2.066,1.989 0,0.252 -0.02,0.676 -0.02,0.676 l -3.068,0 -0.263,0 c 0,0 -0.447,-5.1 4.646,-5.214 5.073,-0.113 6.351,2.916 6.341,4.425 -0.026,4.001 -2.443,4.101 -5.861,5.363 l -0.135,0.046 c -0.807,0.163 -1.293,0.747 -1.293,1.558 0,0.933 0.801,1.689 1.789,1.689 0.988,0 1.696,-0.772 1.696,-1.704 l 0.018,-0.52 3.367,0.035 c 0,0 0.012,1.374 -0.135,1.801" />
        </g>
      </g>
    </g>
  </g>
</svg>
