<svg width="151" height="70" viewBox="0 0 151 70" fill="none" xmlns="http://www.w3.org/2000/svg">
<path d="M-1.74046e-05 69.8182V-7.62939e-06H27.9545C33.0909 -7.62939e-06 37.375 0.761356 40.8068 2.28408C44.2386 3.80681 46.8182 5.92045 48.5454 8.62499C50.2727 11.3068 51.1363 14.3977 51.1363 17.8977C51.1363 20.625 50.5909 23.0227 49.5 25.0909C48.4091 27.1364 46.9091 28.8182 45 30.1364C43.1136 31.4318 40.9545 32.3523 38.5227 32.8977V33.5795C41.1818 33.6932 43.6704 34.4432 45.9886 35.8295C48.3295 37.2159 50.2273 39.1591 51.6818 41.6591C53.1363 44.1364 53.8636 47.0909 53.8636 50.5227C53.8636 54.2273 52.9432 57.5341 51.1023 60.4432C49.2841 63.3295 46.5909 65.6136 43.0227 67.2954C39.4545 68.9773 35.0568 69.8182 29.8295 69.8182H-1.74046e-05ZM14.7613 57.75H26.7954C30.9091 57.75 33.9091 56.9659 35.7954 55.3977C37.6818 53.8068 38.625 51.6932 38.625 49.0568C38.625 47.125 38.1591 45.4204 37.2273 43.9432C36.2954 42.4659 34.9659 41.3068 33.2386 40.4659C31.5341 39.625 29.5 39.2045 27.1363 39.2045H14.7613V57.75ZM14.7613 29.2159H25.7045C27.7273 29.2159 29.5227 28.8636 31.0909 28.1591C32.6818 27.4318 33.9318 26.4091 34.8409 25.0909C35.7727 23.7727 36.2386 22.1932 36.2386 20.3523C36.2386 17.8295 35.3409 15.7954 33.5454 14.25C31.7727 12.7045 29.25 11.9318 25.9773 11.9318H14.7613V29.2159ZM74.3846 69.8182L54.4074 -7.62939e-06H70.5324L82.0892 48.5114H82.6687L95.4187 -7.62939e-06H109.226L121.941 48.6136H122.555L134.112 -7.62939e-06H150.237L130.26 69.8182H115.873L102.578 24.1704H102.032L88.771 69.8182H74.3846Z" fill="white"/>
</svg>
